<?xml version="1.0" encoding="UTF-8" standalone="no"?>
<!-- Created with Inkscape (http://www.inkscape.org/) -->

<svg
   width="34.729851mm"
   height="34.277676mm"
   viewBox="0 0 34.729851 34.277676"
   version="1.1"
   id="svg1"
   xml:space="preserve"
   inkscape:version="1.3.2 (091e20e, 2023-11-25, custom)"
   sodipodi:docname="Money.svg"
   inkscape:export-filename="Goonrilla.png"
   inkscape:export-xdpi="300"
   inkscape:export-ydpi="300"
   xmlns:inkscape="http://www.inkscape.org/namespaces/inkscape"
   xmlns:sodipodi="http://sodipodi.sourceforge.net/DTD/sodipodi-0.dtd"
   xmlns:xlink="http://www.w3.org/1999/xlink"
   xmlns="http://www.w3.org/2000/svg"
   xmlns:svg="http://www.w3.org/2000/svg"><sodipodi:namedview
     id="namedview1"
     pagecolor="#ffffff"
     bordercolor="#666666"
     borderopacity="1.0"
     inkscape:showpageshadow="2"
     inkscape:pageopacity="0.0"
     inkscape:pagecheckerboard="0"
     inkscape:deskcolor="#d1d1d1"
     inkscape:document-units="mm"
     inkscape:zoom="3.8306678"
     inkscape:cx="101.54887"
     inkscape:cy="123.86874"
     inkscape:window-width="1538"
     inkscape:window-height="1011"
     inkscape:window-x="2553"
     inkscape:window-y="0"
     inkscape:window-maximized="0"
     inkscape:current-layer="svg1" /><defs
     id="defs1"><linearGradient
       id="linearGradient1"
       inkscape:collect="always"><stop
         style="stop-color:#ffd400;stop-opacity:1;"
         offset="0"
         id="stop1" /><stop
         style="stop-color:#fffd5b;stop-opacity:1;"
         offset="1"
         id="stop2" /></linearGradient><radialGradient
       inkscape:collect="always"
       xlink:href="#linearGradient1"
       id="radialGradient2"
       cx="17.267441"
       cy="16.576744"
       fx="17.267441"
       fy="16.576744"
       r="6.4044189"
       gradientUnits="userSpaceOnUse"
       gradientTransform="matrix(2.6447246,0,0,2.6447246,-28.729704,-26.903)" /></defs><circle
     style="fill:#808000;stroke:#000000;stroke-width:0.264472;paint-order:fill markers stroke"
     id="circle2-2"
     cx="17.791927"
     cy="17.339752"
     r="16.805687" /><circle
     style="fill:url(#radialGradient2);stroke:#000000;stroke-width:0.264472;paint-order:fill markers stroke"
     id="path1"
     cx="16.937923"
     cy="16.937923"
     r="16.805687" /><g
     id="g3"
     transform="translate(-12.655115,-10.384942)"
     inkscape:export-filename="..\LearnYouAGodot\Coin.svg"
     inkscape:export-xdpi="300"
     inkscape:export-ydpi="300"><path
       d="m 30.31678,33.357385 q 1.483463,0 2.183212,-0.419848 0.727741,-0.447839 0.727741,-1.371506 0,-0.839698 -0.559801,-1.259548 -0.559801,-0.419847 -2.351152,-0.979648 l -1.735381,-0.559798 q -2.379144,-0.727739 -3.442757,-1.959294 -1.063619,-1.259548 -1.063619,-3.274823 0,-1.987285 1.42749,-3.358792 1.455472,-1.399496 3.918586,-1.735376 v -4.030549 h 2.547084 v 3.974568 q 0.951659,0.05599 1.959299,0.195922 1.035624,0.139959 2.631054,0.475828 l -0.447842,3.386781 q -1.903318,-0.391861 -3.162863,-0.559798 -1.25955,-0.195921 -2.155223,-0.195921 -1.371509,0 -2.043269,0.391858 -0.643763,0.363869 -0.643763,1.119597 0,0.895678 0.615774,1.399495 0.615779,0.475831 2.18322,0.92367 l 1.847332,0.531807 q 2.491103,0.727741 3.498743,1.903316 1.035624,1.175577 1.035624,3.330803 0,2.127234 -1.399493,3.52673 -1.399501,1.399498 -3.918593,1.763367 v 4.086533 h -2.547084 v -4.00256 Q 28.133565,36.60421 26.678086,36.35231 25.250603,36.072409 23.487233,35.540602 l 0.727739,-3.386784 q 2.127234,0.643768 3.582713,0.923668 1.455474,0.279899 2.519095,0.279899 z"
       id="text3-9"
       style="font-size:39.9999px;line-height:1.25;font-family:'IntelOne Mono';-inkscape-font-specification:'IntelOne Mono, Normal';white-space:pre;fill:#808000;stroke:#808000;stroke-width:0.699749"
       aria-label="$" /><path
       d="m 28.789308,32.932155 q 1.483463,0 2.183213,-0.419849 0.72774,-0.447839 0.72774,-1.371506 0,-0.839698 -0.5598,-1.259548 -0.5598,-0.419848 -2.351153,-0.979647 l -1.735381,-0.559799 q -2.379143,-0.727738 -3.442756,-1.959295 -1.06362,-1.259547 -1.06362,-3.274822 0,-1.987286 1.42749,-3.358792 1.455473,-1.399497 3.918586,-1.735376 v -4.03055 h 2.547084 v 3.97457 q 0.95166,0.05598 1.9593,0.19593 1.035623,0.139949 2.631053,0.475829 l -0.44784,3.386781 q -1.90332,-0.391859 -3.162863,-0.559798 -1.25955,-0.195929 -2.155223,-0.195929 -1.371511,0 -2.043271,0.391858 -0.643763,0.363869 -0.643763,1.119597 0,0.895678 0.615773,1.399497 0.61578,0.475829 2.183221,0.923668 l 1.847333,0.531809 q 2.491103,0.727738 3.498743,1.903315 1.035623,1.175577 1.035623,3.330802 0,2.127235 -1.399493,3.526731 -1.3995,1.399497 -3.918593,1.763366 v 4.08653 h -2.547084 v -4.00256 q -1.287533,-0.05598 -2.743013,-0.307889 -1.427483,-0.279899 -3.190853,-0.811708 l 0.72774,-3.386782 q 2.127233,0.643768 3.582713,0.923667 1.455473,0.2799 2.519094,0.2799 z"
       id="text3"
       style="font-size:39.9999px;line-height:1.25;font-family:'IntelOne Mono';-inkscape-font-specification:'IntelOne Mono, Normal';white-space:pre;fill:#ffff00;stroke:#808000;stroke-width:0.69975"
       aria-label="$" /></g></svg>
