<?xml version="1.0" encoding="UTF-8" standalone="no"?>
<!-- Generator: Adobe Illustrator 15.1.0, SVG Export Plug-In . SVG Version: 6.00 Build 0)  -->

<svg
   version="1.1"
   id="Layer_1"
   x="0px"
   y="0px"
   width="47.298004"
   height="39.799995"
   viewBox="0 0 47.298005 39.799995"
   enable-background="new 0 0 307.775 255.882"
   xml:space="preserve"
   sodipodi:docname="keysextended.svg"
   xmlns:inkscape="http://www.inkscape.org/namespaces/inkscape"
   xmlns:sodipodi="http://sodipodi.sourceforge.net/DTD/sodipodi-0.dtd"
   xmlns="http://www.w3.org/2000/svg"
   xmlns:svg="http://www.w3.org/2000/svg"><defs
   id="defs23" /><sodipodi:namedview
   id="namedview23"
   pagecolor="#ffffff"
   bordercolor="#666666"
   borderopacity="1.0"
   inkscape:showpageshadow="2"
   inkscape:pageopacity="0.0"
   inkscape:pagecheckerboard="0"
   inkscape:deskcolor="#d1d1d1" />
<path
   fill="#cccccc"
   d="m 34.099002,1.700999 h -20.801 c -3.6990001,0 -6.8990001,1.199 -9.3990001,3.898 -2.7,2.602 -3.8990000337649,5.701 -3.8990000337649,9.301 v 11.6 c 0,3.701 1.1990000337649,6.801 3.8990000337649,9.4 2.5,2.6 5.7,3.9 9.3990001,3.9 h 20.801 c 3.699,0 6.8,-1.301 9.3,-3.9 2.7,-2.6 3.899,-5.699 3.899,-9.4 v -11.6 c 0,-3.6 -1.199,-6.699 -3.899,-9.301 -2.501,-2.698 -5.601,-3.898 -9.3,-3.898 z"
   id="path3"
   inkscape:export-filename="..\..\..\git\CaptainCoderOrg\LearnYouAGodot\LearnYouAGodot\Sprites\key.png"
   inkscape:export-xdpi="300"
   inkscape:export-ydpi="300" /><path
   fill="#ffffff"
   d="m 32.398002,-1.0253511e-6 h -16.8 c -2.9,0 -5.5,1.1010000253511 -7.5000001,3.2010000253511 -2.1,2.1 -3.1,4.6 -3.1,7.5 v 9.299 c 0,3 1,5.601 3.1,7.601 2.0000001,2.101 4.6000001,3.101 7.5000001,3.101 h 16.8 c 2.899,0 5.5,-1 7.5,-3.101 2.2,-2 3.2,-4.601 3.2,-7.601 v -9.299 c 0,-2.9 -1,-5.4 -3.2,-7.5 -2,-2.101 -4.6,-3.2010000253511 -7.5,-3.2010000253511 z"
   id="path4" />
</svg>
